<?xml version="1.0" encoding="utf-8"?>
<!-- Generator: Adobe Illustrator 27.4.0, SVG Export Plug-In . SVG Version: 6.00 Build 0)  -->
<svg version="1.1" id="Слой_1" xmlns="http://www.w3.org/2000/svg" xmlns:xlink="http://www.w3.org/1999/xlink" x="0px" y="0px"
	 viewBox="0 0 388.2 131" style="enable-background:new 0 0 388.2 131;" xml:space="preserve">
<style type="text/css">
	.st0{fill:#4A74AA;}
</style>
<g id="Слой_2_00000167376347043891337540000008758504865034130860_">
	<g>
		<g id="Слой_1-2_00000129927554810727366720000008869265601104278443_">
			<path class="st0" d="M55.5,124.1c0,0-47.1-9.7-46-60.8c1-45.9,45.2-57.6,53.6-56.9c0,0,23.5-0.1,23.5,25.7
				C86.7,67.6,15.9,75.8,55.5,124.1z"/>
			<path class="st0" d="M83.2,7.4c0,0,47,9.7,45.9,60.8c-1,45.9-45.2,57.6-53.6,56.9c0,0-23.5,0.1-23.5-25.7
				C52,63.9,122.8,55.7,83.2,7.4z"/>
			<path class="st0" d="M168.3,13.3h36.1c3.2,0,5.7,2.6,5.7,5.7l0,0c0,3.2-2.6,5.7-5.7,5.7h-36.1c-3.2,0-5.7-2.6-5.7-5.7l0,0
				C162.6,15.9,165.1,13.3,168.3,13.3z"/>
			<path class="st0" d="M263.8,77.3c0,3.2-2.6,5.7-5.8,5.7c-2.2,0-4.2-1.3-5.2-3.3l-22-47L209,79.4c-1.3,2.9-4.7,4.1-7.6,2.8
				c-2-0.9-3.3-3-3.3-5.2c0-0.8,0.2-1.7,0.5-2.4L225.1,18l0.8-1.7c0.3-0.6,0.7-1.2,1.2-1.7l0.1-0.1c0.3-0.2,0.7-0.5,1.1-0.6
				c2.9-1.3,6.3-0.1,7.6,2.7c0,0,0,0,0,0l0.9,1.9l26.4,56.4C263.6,75.6,263.8,76.5,263.8,77.3z"/>
			<path class="st0" d="M337.7,13.3h36.1c3.2,0,5.7,2.6,5.7,5.7l0,0c0,3.2-2.6,5.7-5.7,5.7h-36.1c-3.2,0-5.7-2.6-5.7-5.7l0,0
				C332,15.9,334.6,13.3,337.7,13.3z"/>
			<path class="st0" d="M224.6,72.8h13.1c3.2,0,5.7,2.6,5.7,5.7l0,0c0,3.2-2.6,5.7-5.7,5.7h-13.1c-3.2,0-5.7-2.6-5.7-5.7l0,0
				C218.8,75.4,221.4,72.8,224.6,72.8z"/>
			<path class="st0" d="M186.4,47.8c0-3.2-2.6-5.7-5.7-5.7c0,0,0,0,0,0h-12.1c-3.2,0-5.7,2.6-5.7,5.7c0,0,0,0,0,0v29.7
				c0,3.2,2.6,5.7,5.7,5.7c0,0,0,0,0,0l0,0c3.2,0,5.7-2.6,5.7-5.7c0,0,0,0,0,0v-24h6.4C183.8,53.5,186.4,50.9,186.4,47.8L186.4,47.8
				L186.4,47.8z"/>
			<path class="st0" d="M373.7,71.8h-30.2V53.6h7.4c3.2,0,5.7-2.6,5.7-5.7l0,0c0-3.2-2.6-5.7-5.7-5.7c0,0,0,0,0,0h-13.1
				c-3.2,0-5.7,2.6-5.7,5.7c0,0,0,0,0,0v29.7c0,3.2,2.6,5.7,5.7,5.7h36.1c3.2,0.1,5.8-2.4,5.9-5.6c0.1-3.2-2.4-5.8-5.6-5.9
				C374.1,71.8,373.9,71.8,373.7,71.8z"/>
			<path class="st0" d="M322,69.5c1.6,2.7,0.7,6.1-2,7.7c-0.1,0-0.1,0.1-0.2,0.1c-5.1,3.6-11,5.8-17.1,6.5c-1.2,0.1-2.3,0.2-3.5,0.2
				c-19.6,0-35.4-15.9-35.4-35.4c0-19.5,15.8-35.4,35.4-35.4c1,0,2.1,0,3.1,0.1c6.3,0.6,12.4,2.8,17.5,6.4c1.1,0.7,2,1.6,2.6,2.6
				c0.8,1.6,0.6,3.4-0.3,4.9c-1.1,2-3.3,3.1-5.6,2.8c-0.8-0.1-1.5-0.3-2.2-0.7c-2-1.1-4-2.4-6-3.5c-2.6-1.5-5.5-2.3-8.5-2.3
				c-13.6,0-24.6,11-24.6,24.6c0,6.8,2.8,13.2,7.7,17.9c5,4.7,11.8,7.1,18.6,6.7c4.8-0.2,8.6-3,12.7-5.4c0.5-0.3,1.1-0.5,1.7-0.7
				C318.3,66.2,320.8,67.4,322,69.5z"/>
			<path class="st0" d="M162.9,115.8c1.8,0.8,3.7,1.3,5.7,1.3c2.6,0,4.6-1.8,4.6-3.8s-2.5-2.8-5.2-3.8c-3.2-1.1-5.6-2.8-5.6-5.5
				c0-3.1,3-5.4,6.8-5.4c2,0.1,4,0.6,5.8,1.5l-0.7,2.1c-1.6-0.8-3.4-1.3-5.2-1.5c-2.7,0-4.1,1.7-4.1,3c0,1.8,1.6,2.7,4.4,3.8
				c3.4,1.3,6.2,2.9,6.2,5.8s-1.9,5.7-6.6,5.7c-1.9,0-5.5-0.6-6.6-1.3L162.9,115.8z"/>
			<path class="st0" d="M202.7,100.7h-5.6v-2h13.6v2h-5.6v18h-2.4V100.7z"/>
			<path class="st0" d="M237.4,99.4v11.3c0,4.3,1.9,6.1,4.5,6.1c2.8,0,4.6-1.9,4.6-6.1V99.4h2.5v11.2c0,5.9-3.1,8.3-7.2,8.3
				c-3.9,0-6.9-2.2-6.9-8.2V99.4H237.4z"/>
			<path class="st0" d="M274.5,98.8c0,0,3-0.1,4.8-0.2c2.6-0.1,5.2,0.9,7.2,2.7c1.5,1.4,2.2,4.4,2.2,7.2s-0.8,6-2.4,7.6
				s-4.1,2.6-7.5,2.6c-1.6,0-4.1-0.1-4.1-0.1L274.5,98.8z M276.9,116.8c0,0,1.4,0,2.2,0c5,0.2,7.4-3.2,7.4-8.2s-1.6-8.1-7.1-8.2
				c-1.2,0-2.8,0-2.8,0L276.9,116.8z"/>
		</g>
	</g>
</g>
</svg>
